<?xml version="1.0" encoding="UTF-8"?>
<!-- Generator: Adobe Illustrator 16.0.0, SVG Export Plug-In . SVG Version: 6.00 Build 0)  -->
<svg width="813px" height="192px" enable-background="new -61.862 -89.555 813 192" version="1.1" viewBox="-61.862 -89.555 813 192" xml:space="preserve" xmlns="http://www.w3.org/2000/svg" xmlns:cc="http://creativecommons.org/ns#" xmlns:dc="http://purl.org/dc/elements/1.1/" xmlns:rdf="http://www.w3.org/1999/02/22-rdf-syntax-ns#"><metadata><rdf:RDF><cc:Work rdf:about=""><dc:format>image/svg+xml</dc:format><dc:type rdf:resource="http://purl.org/dc/dcmitype/StillImage"/><dc:title/></cc:Work></rdf:RDF></metadata><g enable-background="new    "><path d="m-42.325-2.014c-0.048-0.479-0.048-0.792 0-0.936l0.144-0.288 30.6-69.912c0.144-0.288 0.324-0.587 0.54-0.9 0.216-0.312 0.756-0.468 1.62-0.468h0.36c0.432 0 0.779 0.061 1.044 0.18 0.263 0.12 0.468 0.264 0.612 0.432 0.144 0.169 0.24 0.336 0.288 0.504 0.047 0.168 0.096 0.3 0.144 0.396 2.399 5.856 4.871 11.688 7.416 17.496l15.48 34.848c2.543 5.857 5.015 11.664 7.416 17.424l-0.072-0.072 0.288 1.296c0 0.817-0.601 1.224-1.8 1.224h-62.28c-1.249 0-1.849-0.407-1.8-1.224zm23.184-7.487h30.528l-20.736-49.033-20.88 49.032c0.911 1e-3 4.608 1e-3 11.088 1e-3z"/></g><g enable-background="new    "><path d="m86.755-27.47c0.527 1.726 0.792 3.5 0.792 5.321 0 2.878-0.529 5.598-1.584 8.163-1.057 2.565-2.497 4.831-4.32 6.796-1.825 1.966-3.996 3.524-6.516 4.674-2.52 1.151-5.245 1.726-8.172 1.726h-32.904c-0.529 0-0.961-0.119-1.296-0.359-0.336-0.24-0.48-0.647-0.432-1.223v-38.886c-0.048-0.479 0.096-0.887 0.432-1.222 0.335-0.335 0.744-0.503 1.224-0.503h29.52c1.631 0 3.144-0.288 4.536-0.866 1.392-0.579 2.592-1.409 3.6-2.492s1.811-2.348 2.412-3.792c0.6-1.445 0.9-2.997 0.9-4.659 0-1.661-0.288-3.177-0.864-4.55s-1.356-2.551-2.34-3.539c-0.984-0.987-2.172-1.769-3.564-2.347-1.393-0.578-2.928-0.868-4.608-0.868h-24.408c-0.576 0-0.984-0.155-1.224-0.468-0.241-0.312-0.36-0.731-0.36-1.26v-5.112c0-1.055 0.528-1.584 1.584-1.584h24.912c2.688 0.048 5.184 0.554 7.488 1.514 2.448 1.01 4.56 2.392 6.336 4.146 1.775 1.755 3.18 3.833 4.212 6.236 1.031 2.403 1.548 5.023 1.548 7.858 0 2.836-0.601 5.54-1.8 8.111-1.201 2.572-2.88 4.819-5.04 6.741 1.631 0.958 3.096 2.086 4.392 3.38 1.296 1.295 2.412 2.709 3.348 4.243 0.936 1.537 1.668 3.144 2.196 4.821zm-8.928 10.264c0.623-1.584 0.936-3.215 0.936-4.896 0-1.68-0.3-3.276-0.9-4.788-0.601-1.512-1.44-2.844-2.52-3.996s-2.353-2.052-3.816-2.7c-1.465-0.648-3.013-0.972-4.644-0.972h-26.136v25.344h26.136c1.631 0 3.168-0.348 4.608-1.044 1.44-0.695 2.7-1.644 3.78-2.844 1.08-1.199 1.932-2.567 2.556-4.104z"/></g><g enable-background="new    "><path d="m150.67-65.95c0 0.336-0.048 0.553-0.144 0.648l-2.664 4.392c-0.288 0.288-0.528 0.529-0.72 0.72-0.192 0.192-0.385 0.288-0.576 0.288-0.336 0-0.768-0.24-1.296-0.72-2.448-1.68-5.004-2.963-7.668-3.852-2.664-0.888-5.461-1.428-8.388-1.62-4.32 0-8.305 0.769-11.952 2.304-3.648 1.537-6.804 3.625-9.468 6.264-2.664 2.64-4.741 5.7-6.228 9.18-1.488 3.481-2.232 7.117-2.232 10.908 0 4.129 0.767 7.909 2.304 11.34 1.536 3.433 3.6 6.408 6.192 8.928s5.604 4.476 9.036 5.868c3.431 1.393 7.02 2.088 10.764 2.088 5.568 0 10.752-1.536 15.552-4.608l2.088-1.296c0.528-0.288 0.9-0.432 1.116-0.432s0.419 0.084 0.612 0.252c0.191 0.168 0.407 0.396 0.648 0.684l2.808 4.536c0.047 0.192 0.096 0.36 0.144 0.504 0.047 0.144 0.072 0.324 0.072 0.54s-0.097 0.457-0.288 0.72c-0.192 0.264-0.48 0.493-0.864 0.684-2.977 2.113-6.264 3.78-9.864 5.004s-7.513 1.836-11.736 1.836c-3.409 0-6.685-0.432-9.828-1.296-3.144-0.864-6.084-2.099-8.82-3.708-2.736-1.608-5.208-3.528-7.416-5.76s-4.116-4.716-5.724-7.452-2.844-5.664-3.708-8.784-1.296-6.383-1.296-9.792c0-3.408 0.432-6.684 1.296-9.828 0.864-3.143 2.1-6.084 3.708-8.82s3.54-5.231 5.796-7.488c2.255-2.255 4.739-4.176 7.452-5.76 2.711-1.584 5.652-2.819 8.82-3.708 3.168-0.888 6.455-1.332 9.864-1.332 3.984 0 7.787 0.588 11.412 1.764 3.624 1.177 7.067 2.916 10.332 5.22 0.576 0.481 0.864 1.009 0.864 1.584z"/></g><g enable-background="new    "><path d="m160.67-0.79c-0.48 0-0.889-0.096-1.224-0.288-0.336-0.191-0.48-0.6-0.432-1.224v-70.416c-0.048-0.671 0.072-1.139 0.36-1.404 0.288-0.263 0.72-0.396 1.296-0.396h23.616c3.552 0 6.923 0.432 10.116 1.296 3.191 0.864 6.167 2.088 8.928 3.672 2.76 1.584 5.256 3.504 7.488 5.76 2.232 2.257 4.14 4.752 5.724 7.488s2.808 5.688 3.672 8.856 1.283 6.456 1.26 9.864c-0.025 3.409-0.468 6.685-1.332 9.828-0.864 3.144-2.113 6.073-3.744 8.784-1.632 2.712-3.564 5.184-5.796 7.416s-4.728 4.14-7.488 5.724c-2.761 1.584-5.724 2.82-8.892 3.708-3.168 0.889-6.48 1.332-9.936 1.332h-23.616zm34.955-10.728c3.528-1.536 6.576-3.624 9.144-6.264 2.567-2.639 4.572-5.711 6.012-9.216 1.44-3.503 2.16-7.224 2.16-11.16 0-4.223-0.756-8.039-2.268-11.448-1.512-3.408-3.564-6.336-6.156-8.784s-5.616-4.344-9.072-5.688c-3.456-1.343-7.176-2.016-11.16-2.016h-16.848v56.88h16.56c4.223 1e-3 8.1-0.767 11.628-2.304z"/></g><path d="m229.99-74.515c-0.528 0-0.935 0.12-1.223 0.36-0.288 0.192-0.432 0.575-0.432 1.151v70.559c0 1.104 0.551 1.655 1.655 1.655h48.311c0.624 0 1.081-0.119 1.368-0.359 0.288-0.288 0.432-0.768 0.432-1.44v-4.969c0-0.48-0.144-0.887-0.432-1.223-0.288-0.384-0.768-0.577-1.44-0.577h-41.255v-14.184h32.977c0.384 0 0.744-0.143 1.08-0.431s0.504-0.744 0.504-1.368v-5.184c0-0.432-0.145-0.817-0.432-1.153-0.24-0.336-0.624-0.504-1.151-0.504h-32.977v-12.744c0.067-2.446 0.023-6.126 0-8.64v-12.384h41.544c1.104 0 1.655-0.601 1.655-1.8v-5.184c0-1.056-0.528-1.583-1.583-1.583l-48.601 2e-3z"/><g enable-background="new    "><path d="m339.06-74.158c0.288 0.288 0.432 0.769 0.432 1.44v4.968c0 0.48-0.156 0.9-0.468 1.26-0.313 0.36-0.756 0.54-1.332 0.54h-40.608v23.976h28.728c0.432 0 0.815 0.133 1.151 0.396 0.336 0.265 0.505 0.684 0.505 1.26v5.184c0 0.48-0.145 0.9-0.433 1.26s-0.696 0.54-1.224 0.54h-28.728v31.032c0 0.576-0.156 0.972-0.468 1.188-0.313 0.216-0.756 0.324-1.332 0.324h-5.184c-0.576 0-0.997-0.108-1.26-0.324-0.264-0.216-0.396-0.612-0.396-1.188v-70.56c0-1.104 0.551-1.656 1.656-1.656h47.592c0.577 0 1.033 0.121 1.369 0.36z"/></g><g enable-background="new    "><path d="m390.15-33.509c0.432-0.383 0.983-0.576 1.656-0.576h3.455c0.721 0 1.297 0.205 1.729 0.612 0.432 0.408 0.647 0.997 0.647 1.764v20.808c0 0.913-0.313 1.584-0.936 2.016l-0.648 0.432c-3.12 2.304-6.516 4.068-10.188 5.292s-7.645 1.836-11.916 1.836c-3.36 0-6.612-0.432-9.756-1.296-3.145-0.864-6.073-2.099-8.784-3.708-2.712-1.608-5.184-3.528-7.416-5.76s-4.152-4.716-5.76-7.452c-1.609-2.736-2.844-5.676-3.708-8.82-0.864-3.143-1.296-6.408-1.296-9.792s0.432-6.647 1.296-9.792c0.864-3.143 2.099-6.071 3.708-8.784 1.607-2.711 3.527-5.195 5.76-7.452 2.232-2.256 4.716-4.188 7.452-5.796s5.676-2.855 8.82-3.744c3.143-0.888 6.419-1.332 9.827-1.332 2.4 0 4.752 0.239 7.057 0.714 2.304 0.476 4.583 1.142 6.84 1.998 0.768 0.334 1.68 0.763 2.736 1.286 1.055 0.524 2.063 1.083 3.023 1.677 0.96 0.595 1.775 1.214 2.448 1.856 0.672 0.644 1.008 1.265 1.008 1.864 0 0.601-0.144 1.116-0.432 1.548v-0.072l-1.513 2.592c-0.479 0.769-1.128 1.152-1.943 1.152-0.625 0-1.249-0.24-1.872-0.72-2.4-1.728-5.017-3.071-7.848-4.032-2.833-0.96-5.809-1.44-8.929-1.44-2.784 0-5.448 0.361-7.992 1.082s-4.896 1.73-7.056 3.028-4.116 2.847-5.868 4.649c-1.753 1.802-3.252 3.761-4.5 5.876s-2.208 4.349-2.88 6.704c-0.673 2.355-1.008 4.759-1.008 7.209 0 3.942 0.756 7.654 2.268 11.139 1.513 3.484 3.552 6.511 6.12 9.083 2.567 2.572 5.568 4.59 9 6.056s7.044 2.198 10.836 2.198c2.736 0 5.4-0.432 7.992-1.296s5.208-1.967 7.848-3.312l0.072-17.496c3e-3 -0.814 0.219-1.414 0.651-1.799z"/></g><g enable-background="new    "><path d="m461.75-72.928c0-0.481 0.155-0.866 0.469-1.156 0.312-0.289 0.73-0.434 1.26-0.434h5.04c0.479 0 0.899 0.144 1.26 0.432s0.54 0.673 0.54 1.152v70.56c0 0.576-0.133 0.984-0.396 1.224-0.264 0.241-0.732 0.36-1.403 0.36h-5.04c-1.152 0-1.729-0.528-1.729-1.584v-21.168h-43.704v21.168c0 1.056-0.595 1.584-1.784 1.584h-5.069c-1.047 0-1.57-0.528-1.57-1.584v-70.56c-0.048-0.479 0.071-0.864 0.356-1.152 0.286-0.288 0.69-0.432 1.214-0.432h5.212c0.428 0 0.81 0.145 1.143 0.434 0.333 0.29 0.499 0.674 0.499 1.156v19.578h43.704v-19.578zm-21.852 40.746h21.852v-12.744h-43.704v12.744h21.852z"/></g><g enable-background="new    "><path d="m481.26-72.934c0-0.479 0.145-0.864 0.432-1.152 0.288-0.288 0.672-0.432 1.152-0.432h5.256c0.479 0 0.9 0.144 1.26 0.432s0.54 0.673 0.54 1.152v70.56c0 0.576-0.156 0.984-0.468 1.224-0.313 0.241-0.756 0.36-1.332 0.36h-5.256c-1.057 0-1.584-0.528-1.584-1.584v-70.56z"/></g><g enable-background="new    "><path d="m496.06-7.949c0-0.528 0.217-1.008 0.648-1.44l3.168-3.312 0.432-0.144c0.336-0.288 0.636-0.432 0.9-0.432s0.54 0.121 0.828 0.36l0.936 0.648c0.336 0.336 0.721 0.648 1.152 0.936 0.432 0.288 0.924 0.576 1.476 0.864s1.176 0.529 1.872 0.72c0.695 0.192 1.5 0.288 2.412 0.288 1.296 0 2.484-0.239 3.564-0.72 1.08-0.479 2.016-1.127 2.808-1.944 0.792-0.816 1.415-1.775 1.872-2.88 0.456-1.104 0.685-2.279 0.685-3.528v-55.08c0-0.383 0.107-0.708 0.323-0.972s0.588-0.42 1.116-0.468h5.328c0.527 0 0.936 0.133 1.224 0.396 0.288 0.265 0.433 0.661 0.433 1.188v54.936c0 2.448-0.457 4.716-1.368 6.804-0.912 2.088-2.148 3.9-3.708 5.436-1.561 1.537-3.396 2.748-5.508 3.636-2.113 0.889-4.369 1.332-6.769 1.332-2.688 0-5.232-0.479-7.632-1.44-2.4-0.959-4.368-2.472-5.904-4.536l-0.071-0.072c-0.145-0.095-0.217-0.288-0.217-0.576z"/></g><g enable-background="new    "><path d="m562.39-29.261 24.624 25.992c0.24 0.288 0.36 0.552 0.36 0.792 0 0.241-0.085 0.432-0.252 0.576-0.169 0.144-0.373 0.265-0.612 0.36-0.24 0.097-0.48 0.144-0.72 0.144l-0.648 0.072h-6.983c-0.433 0-0.841-0.144-1.225-0.432-0.385-0.288-0.816-0.695-1.296-1.224l-19.008-20.16-9.432 9.936v9.432c0 1.633-0.841 2.448-2.521 2.448h-3.528c-1.632 0-2.424-0.815-2.376-2.448v-68.832c-0.048-0.672 0.132-1.248 0.54-1.728 0.407-0.479 1.02-0.72 1.836-0.72h3.601c0.672 0 1.247 0.229 1.728 0.684 0.479 0.457 0.721 1.044 0.721 1.764v29.232l28.439-29.808c0.432-0.528 0.852-0.936 1.26-1.224 0.407-0.288 0.828-0.432 1.261-0.432h6.983l0.648 0.072c0.239 0 0.479 0.048 0.72 0.144 0.239 0.097 0.443 0.216 0.612 0.36 0.167 0.144 0.252 0.336 0.252 0.576 0 0.241-0.12 0.504-0.36 0.792l-39.815 41.76v5.688l27.287-28.872c0.433-0.479 0.853-0.864 1.261-1.152 0.407-0.288 0.828-0.432 1.26-0.432h7.631c0.24 0.048 0.479 0.108 0.72 0.18s0.443 0.192 0.612 0.36c0.168 0.169 0.252 0.373 0.252 0.612 0 0.241-0.12 0.504-0.359 0.792l-11.737 12.312c-6.817 7.2-10.729 11.329-11.736 12.384z"/></g><g enable-background="new    "><path d="m641.4-9.425c0.335 0.313 0.504 0.756 0.504 1.332v5.184c0 0.48-0.145 0.864-0.433 1.152s-0.673 0.432-1.151 0.432h-42.912c-1.057 0-1.584-0.528-1.584-1.584v-70.56c0-0.479 0.144-0.864 0.432-1.152s0.695-0.432 1.225-0.432h5.184c0.479 0 0.864 0.121 1.152 0.36 0.287 0.241 0.432 0.648 0.432 1.224v63.576h36.072c0.383 0 0.742 0.157 1.079 0.468z"/></g><g enable-background="new    "><path d="m693.36-41.15-8.136-19.584-15.264 38.016c-1.249 3.072-2.401 5.976-3.456 8.712l-4.896 12.384v-0.144c-0.192 0.48-0.468 0.853-0.828 1.116-0.359 0.264-0.78 0.396-1.26 0.396h-5.399c-0.529 0-0.948-0.083-1.261-0.252-0.313-0.167-0.468-0.443-0.468-0.828 0-0.191 0.023-0.384 0.072-0.576l0.216-0.648 28.872-70.056c0-0.096 0.047-0.191 0.144-0.288l-0.144 0.216 0.576-0.864c0.239-0.288 0.743-0.432 1.512-0.432h3.313c0.767 0 1.247 0.144 1.439 0.432l0.504 0.792c0 0.048 0.023 0.097 0.072 0.144l0.144 0.216-0.071-0.072 8.712 21.024-4.393 10.296zm32.473 34.344-2.88-7.2-10.944-27.144-8.136-19.584-15.265 38.016c-1.248 3.072-2.4 5.976-3.456 8.712l-4.896 12.384v-0.144c-0.192 0.48-0.468 0.853-0.828 1.116-0.36 0.264-0.78 0.396-1.26 0.396h-5.4c-0.528 0-0.948-0.083-1.26-0.252-0.313-0.167-0.468-0.443-0.468-0.828 0-0.191 0.023-0.384 0.071-0.576l0.217-0.648 28.872-70.056c0-0.096 0.047-0.191 0.144-0.288l-0.144 0.216 0.575-0.864c0.24-0.288 0.744-0.432 1.513-0.432h3.312c0.768 0 1.248 0.144 1.44 0.432l0.504 0.792c0 0.048 0.023 0.097 0.072 0.144l0.144 0.216-0.072-0.072 29.088 69.912 0.145 0.288c0.047 0.288 0.072 0.601 0.072 0.936 0 0.72-0.602 1.08-1.801 1.08h-5.256c-0.576 0-1.032-0.132-1.368-0.396-0.336-0.263-0.575-0.587-0.72-0.972-0.48-1.296-1.152-3.024-2.015-5.184z"/></g><g enable-background="new    "><path d="m19.396 7.167c0.383 0.241 0.576 0.625 0.576 1.152l-0.504 70.2c0 1.056-0.63 1.561-1.888 1.512h-6.536l-45.216-61.416-0.216 38.16 17.856 0.072c0.432 0 0.803 0.144 1.116 0.432 0.312 0.288 0.468 0.673 0.468 1.152l-0.072 5.256c0 0.48-0.144 0.9-0.432 1.26s-0.673 0.54-1.152 0.54l-24.696-0.216h-0.072c-1.008 0-1.537-0.432-1.584-1.296l0.432-55.944c0-0.528 0.155-0.947 0.468-1.26 0.312-0.312 0.731-0.443 1.26-0.396h6.696c0.671 0 1.199 0.265 1.584 0.792l43.488 58.608 0.436-57.888c0.193-0.816 0.727-1.224 1.598-1.224l5.083 0.072c0.435 0 0.871 0.144 1.307 0.432zm-27.072 64.08c0.479 0.048 0.864 0.205 1.152 0.468 0.288 0.265 0.432 0.661 0.432 1.188l-0.072 5.184c0 0.48-0.133 0.9-0.396 1.26-0.265 0.36-0.661 0.54-1.188 0.54h-33.624c-0.48 0-0.864-0.144-1.152-0.432s-0.432-0.672-0.432-1.152v-5.256c0-0.479 0.144-0.9 0.432-1.26s0.695-0.54 1.224-0.54h16.776 16.848z"/></g><g enable-background="new    "><path d="m38.693 69.267c-6.937-6.936-10.524-15.612-10.764-26.028 0.24-10.416 3.828-19.091 10.764-26.028 6.936-6.936 15.612-10.548 26.028-10.836 10.464 0.288 19.164 3.9 26.1 10.836 6.936 6.937 10.523 15.613 10.764 26.028-0.241 10.416-3.829 19.092-10.764 26.028-6.937 6.937-15.636 10.548-26.1 10.836-10.416-0.288-19.092-3.899-26.028-10.836zm5.761-46.296c-5.4 5.4-8.197 12.157-8.388 20.268 0.191 8.112 2.988 14.88 8.388 20.304 5.4 5.425 12.155 8.233 20.268 8.424 8.16-0.191 14.94-2.999 20.34-8.424 5.4-5.423 8.195-12.191 8.388-20.304-0.192-8.111-2.988-14.868-8.388-20.268s-12.181-8.219-20.34-8.46c-8.113 0.241-14.868 3.06-20.268 8.46z"/></g><g enable-background="new    "><path d="m157.81 21.919c1.152 2.784 1.728 5.736 1.728 8.856 0 2.977-0.576 5.856-1.728 8.64s-2.736 5.245-4.752 7.38c-2.016 2.136-4.404 3.841-7.164 5.112-2.761 1.272-5.749 1.908-8.964 1.908h-22.536v25.776c0 1.056-0.524 1.584-1.57 1.584h-5.211c-1.143 0-1.691-0.528-1.643-1.584v-32.472c-0.048-0.527 0.094-0.947 0.427-1.26 0.333-0.312 0.738-0.468 1.215-0.468h19.093l10.584 0.144c1.824-0.144 3.575-0.671 5.256-1.584 1.68-0.911 3.144-2.04 4.392-3.384 1.248-1.343 2.232-2.868 2.952-4.572 0.72-1.703 1.08-3.479 1.08-5.328 0-1.848-0.36-3.66-1.08-5.436-0.72-1.775-1.728-3.359-3.024-4.752-1.296-1.392-2.808-2.508-4.536-3.348-1.728-0.839-3.576-1.26-5.544-1.26h-24.319c-0.477 0-0.87-0.131-1.179-0.396-0.31-0.263-0.463-0.635-0.463-1.116v-5.184c0-0.432 0.143-0.828 0.428-1.188 0.286-0.36 0.69-0.54 1.214-0.54h24.895c2.976 0.097 5.784 0.745 8.424 1.944 2.783 1.249 5.184 2.941 7.2 5.076 2.016 2.137 3.624 4.621 4.825 7.452z"/></g><g enable-background="new    "><path d="m227.52 67.67 7.488 7.488c0.383 0.384 0.551 0.768 0.504 1.152-0.048 0.385-0.265 0.768-0.648 1.152l-3.672 3.672c-0.72 0.72-1.44 0.72-2.16 0l-7.488-7.488c-3.168 2.545-6.685 4.512-10.548 5.904-3.864 1.393-7.98 2.088-12.348 2.088-10.416-0.24-19.092-3.828-26.028-10.764-6.937-6.936-10.548-15.612-10.836-26.028 0.288-10.464 3.899-19.164 10.836-26.1 6.936-6.936 15.612-10.523 26.028-10.764 10.416 0.241 19.091 3.829 26.028 10.764 6.936 6.937 10.548 15.636 10.836 26.1 0 4.32-0.709 8.413-2.124 12.276-1.416 3.865-3.372 7.38-5.868 10.548zm-28.872 5.832c3.215 0 6.264-0.492 9.144-1.476 2.88-0.983 5.52-2.387 7.92-4.212l-3.888-3.888c-0.336-0.335-0.504-0.695-0.504-1.08 0-0.384 0.167-0.768 0.504-1.152l3.6-3.6c0.335-0.335 0.731-0.527 1.188-0.576 0.456-0.047 0.852 0.097 1.188 0.432l3.888 3.888c1.775-2.399 3.156-5.04 4.14-7.92 0.983-2.88 1.5-5.904 1.548-9.072-0.241-8.16-3.06-14.94-8.46-20.34s-12.157-8.195-20.268-8.388c-8.112 0.192-14.868 2.988-20.268 8.388s-8.221 12.181-8.46 20.34c0.239 8.112 3.06 14.868 8.46 20.268 5.4 5.401 12.156 8.197 20.268 8.388z"/></g><g enable-background="new    "><path d="m291.49 80.095 0.288 0.504c0.096 0.144 0.144 0.277 0.144 0.396 0 0.121-0.336 0.18-1.008 0.18h-7.776c-0.48 0-0.9-0.144-1.26-0.432s-0.684-0.671-0.972-1.152l-15.48-25.776h-17.64v25.776c0 1.056-0.524 1.584-1.57 1.584h-5.211c-1.096 0-1.643-0.528-1.643-1.584v-32.472c-0.048-0.527 0.094-0.947 0.427-1.26 0.333-0.312 0.738-0.468 1.215-0.468h29.821c1.824-0.144 3.564-0.659 5.22-1.548 1.656-0.888 3.096-2.003 4.32-3.348 1.224-1.343 2.196-2.868 2.916-4.572 0.72-1.703 1.08-3.467 1.08-5.292 0-1.824-0.36-3.624-1.08-5.4-0.72-1.775-1.728-3.359-3.024-4.752-1.296-1.392-2.808-2.508-4.536-3.348-1.728-0.839-3.576-1.26-5.544-1.26h-24.82c-0.571 0-0.975-0.155-1.214-0.468-0.238-0.312-0.356-0.731-0.356-1.26v-5.112c0-1.055 0.523-1.584 1.57-1.584h24.892c3.168 0 6.144 0.637 8.928 1.908 2.783 1.272 5.184 2.977 7.2 5.112 2.016 2.136 3.611 4.608 4.788 7.416 1.176 2.808 1.764 5.772 1.764 8.892 0 2.544-0.421 5.004-1.26 7.38-0.84 2.376-2.041 4.561-3.6 6.552-1.561 1.992-3.409 3.732-5.544 5.22-2.137 1.488-4.477 2.592-7.02 3.312l7.992 13.392c4.705 7.825 7.369 12.312 7.993 13.464z"/></g><g enable-background="new    "><path d="m312.23 17.095c-1.608 0.961-3.036 2.149-4.283 3.564-1.249 1.417-2.244 3.024-2.988 4.824s-1.116 3.612-1.116 5.436c0 1.537 0.335 2.94 1.009 4.212 0.671 1.272 1.512 2.52 2.52 3.744s2.099 2.484 3.275 3.78 2.269 2.725 3.276 4.284c1.008 1.56 1.848 3.336 2.521 5.328 0.671 1.993 1.008 4.284 1.008 6.876-0.049 3.073-0.648 5.917-1.8 8.532-1.152 2.617-2.689 4.896-4.608 6.84-1.921 1.944-4.152 3.504-6.696 4.68-2.544 1.177-5.184 1.836-7.92 1.98-0.48 0-0.876-0.144-1.188-0.432-0.313-0.288-0.444-0.744-0.396-1.368v-4.392c-0.048-0.479 0.083-0.864 0.396-1.152 0.312-0.288 0.708-0.432 1.188-0.432 1.728-0.24 3.384-0.852 4.968-1.836 1.584-0.983 2.977-2.184 4.176-3.6 1.2-1.416 2.16-3 2.881-4.752 0.72-1.752 1.08-3.492 1.08-5.22s-0.337-3.287-1.009-4.68c-0.672-1.392-1.512-2.711-2.52-3.96-1.008-1.248-2.101-2.52-3.276-3.816-1.176-1.296-2.268-2.7-3.275-4.212-1.008-1.512-1.849-3.191-2.52-5.04-0.673-1.847-1.008-3.996-1.008-6.444 0-3.071 0.587-5.951 1.764-8.64 1.176-2.688 2.76-5.027 4.752-7.02 1.99-1.991 4.271-3.575 6.84-4.752 2.566-1.176 5.243-1.836 8.027-1.98 0.479 0 0.876 0.144 1.188 0.432s0.468 0.745 0.468 1.368v4.536c0 0.48-0.156 0.864-0.468 1.152-0.313 0.288-0.709 0.432-1.188 0.432-1.779 0.193-3.47 0.769-5.078 1.728z"/></g><g enable-background="new    "><path d="m324.63 12.086v-2.52c0-0.479 0.155-0.864 0.468-1.152 0.312-0.288 0.708-0.432 1.188-0.432h28.439c0.479 0 0.888 0.121 1.225 0.36 0.335 0.241 0.576 0.648 0.72 1.224v5.04c0 0.576-0.156 1.044-0.468 1.404-0.313 0.36-0.805 0.54-1.477 0.54h-21.527v63.504c0 0.432-0.156 0.816-0.468 1.152-0.313 0.336-0.757 0.504-1.332 0.504h-5.04c-0.48 0-0.889-0.155-1.225-0.468-0.336-0.312-0.504-0.708-0.504-1.188v-65.448c1e-3 -0.191 1e-3 -1.031 1e-3 -2.52z"/></g><g enable-background="new    "><path d="m368.59 51.142c0 3.216 0.48 6.228 1.442 9.036 0.961 2.808 2.344 5.245 4.146 7.308 1.803 2.064 4.015 3.684 6.636 4.86 2.62 1.177 5.638 1.764 9.052 1.764 3.654 0 6.826-0.587 9.52-1.764 2.692-1.176 4.916-2.808 6.671-4.896 1.756-2.088 3.064-4.524 3.932-7.308 0.864-2.783 1.298-5.784 1.298-9v-41.04c0-0.479 0.155-0.864 0.468-1.152 0.312-0.288 0.756-0.432 1.332-0.432h4.68c0.479 0 0.924 0.144 1.332 0.432 0.407 0.288 0.612 0.673 0.612 1.152v42.408c0 4.368-0.78 8.376-2.34 12.024-1.561 3.648-3.697 6.792-6.408 9.432-2.712 2.64-5.868 4.68-9.468 6.12s-7.452 2.16-11.556 2.16-7.969-0.78-11.593-2.34-6.78-3.684-9.468-6.372-4.813-5.843-6.372-9.468c-1.561-3.624-2.34-7.476-2.34-11.556v-42.408c0-0.384 0.131-0.744 0.393-1.08 0.261-0.335 0.606-0.504 1.035-0.504h5.354c0.333 0 0.691 0.144 1.071 0.432s0.571 0.673 0.571 1.152v41.04z"/></g><g enable-background="new    "><path d="m435.58 15.607 2.88 7.2 10.944 27.144 8.136 19.584 15.265-38.016c1.247-3.071 2.399-5.976 3.455-8.712l4.896-12.384v0.144c0.191-0.479 0.468-0.852 0.828-1.116 0.359-0.263 0.779-0.396 1.26-0.396h5.4c0.527 0 0.947 0.084 1.26 0.252 0.312 0.169 0.468 0.444 0.468 0.828 0 0.192-0.024 0.385-0.072 0.576l-0.216 0.648-28.872 70.056c0 0.097-0.048 0.192-0.144 0.288l0.144-0.216-0.576 0.864c-0.24 0.288-0.744 0.432-1.512 0.432h-3.312c-0.769 0-1.249-0.144-1.44-0.432l-0.504-0.792c0-0.047-0.024-0.096-0.072-0.144l-0.144-0.216 0.072 0.072-29.089-69.912-0.144-0.288c-0.048-0.288-0.072-0.6-0.072-0.936 0-0.72 0.6-1.08 1.801-1.08h5.256c0.575 0 1.031 0.133 1.367 0.396 0.336 0.265 0.576 0.588 0.721 0.972 0.48 1.296 1.152 3.024 2.016 5.184z"/></g><g enable-background="new    "><path d="m504.77 16.07 2.88 7.2 10.944 27.144 8.136 19.584 15.264-38.016c1.248-3.071 2.4-5.976 3.456-8.712l4.896-12.384v0.144c0.191-0.479 0.468-0.852 0.828-1.116 0.359-0.263 0.779-0.396 1.26-0.396h5.4c0.527 0 0.947 0.084 1.26 0.252 0.312 0.168 0.468 0.444 0.468 0.828 0 0.192-0.024 0.385-0.072 0.576l-0.216 0.648-28.873 70.056c0 0.097-0.048 0.192-0.144 0.288l0.144-0.216-0.576 0.864c-0.24 0.288-0.744 0.432-1.512 0.432h-3.312c-0.769 0-1.249-0.144-1.44-0.432l-0.504-0.792c0-0.047-0.024-0.096-0.072-0.144l-0.144-0.216 0.071 0.072-29.088-69.912-0.144-0.288c-0.049-0.288-0.072-0.6-0.072-0.936 0-0.72 0.6-1.08 1.8-1.08h5.257c0.575 0 1.031 0.133 1.367 0.396 0.336 0.264 0.576 0.588 0.721 0.972 0.479 1.296 1.152 3.024 2.017 5.184zm18.648 0 2.88 7.2 10.943 27.144 8.137 19.584 15.264-38.016c1.248-3.071 2.399-5.976 3.456-8.712l4.896-12.384v0.144c0.191-0.479 0.469-0.852 0.828-1.116 0.36-0.263 0.78-0.396 1.26-0.396h5.4c0.527 0 0.947 0.084 1.26 0.252 0.312 0.168 0.469 0.444 0.469 0.828 0 0.192-0.025 0.385-0.072 0.576l-0.216 0.648-28.872 70.056c0 0.097-0.049 0.192-0.145 0.288l0.145-0.216-0.576 0.864c-0.241 0.288-0.745 0.432-1.512 0.432h-3.313c-0.769 0-1.249-0.144-1.439-0.432l-0.505-0.792c0-0.047-0.024-0.096-0.071-0.144l-0.145-0.216 0.072 0.072-29.088-69.912-0.145-0.288c-0.048-0.288-0.071-0.6-0.071-0.936 0-0.72 0.6-1.08 1.8-1.08h5.256c0.576 0 1.031 0.133 1.368 0.396 0.335 0.264 0.576 0.588 0.72 0.972 0.479 1.296 1.152 3.024 2.016 5.184z"/></g><g enable-background="new    "><path d="m640.67 83.778c0.048 0.168 0.072 0.313 0.072 0.432 0 0.121-0.265 0.18-0.792 0.18h-7.416c-0.961 0-1.8-0.528-2.521-1.584l-18.936-28.008-9.432 14.04c-3.217 4.849-6.361 9.504-9.433 13.968-0.336 0.48-0.72 0.864-1.151 1.152-0.433 0.288-0.864 0.432-1.296 0.432h-7.488c-0.576 0-0.864-0.072-0.864-0.216s0.047-0.288 0.145-0.432l0.359-0.648v0.144l24.265-35.64-12.744-18.792-11.376-16.56v0.144c-0.433-0.72-0.648-1.176-0.648-1.368 0-0.191 0.119-0.312 0.36-0.36h7.344c0.768 0 1.355 0.144 1.764 0.432 0.407 0.288 0.9 0.817 1.477 1.584l18.72 27.576 18.864-27.576h-0.072l0.864-1.008c0.239-0.239 0.479-0.432 0.72-0.576 0.239-0.144 0.504-0.252 0.792-0.324s0.6-0.108 0.936-0.108h7.345c0.239 0.048 0.359 0.169 0.359 0.36 0 0.192-0.192 0.648-0.575 1.368v-0.144c-1.682 2.353-3.481 4.944-5.4 7.776l-6.048 8.784-6.408 9.36-6.336 9.432 24.264 35.64c0.142 0.193 0.238 0.372 0.286 0.54z"/></g><g enable-background="new    "><path d="m659.49 19.302 19.009 32.184v31.104c0 0.672-0.145 1.141-0.433 1.404-0.288 0.264-0.72 0.396-1.296 0.396h-5.328c-0.576 0-0.972-0.132-1.188-0.396-0.217-0.263-0.324-0.731-0.324-1.404v-30.6l-24.84-39.816c-0.337-0.576-0.504-0.972-0.504-1.188s0.239-0.324 0.72-0.324h31.32c0.479 0 0.863 0.144 1.151 0.432s0.433 0.673 0.433 1.152v5.256c0 0.48-0.145 0.9-0.433 1.26s-0.673 0.54-1.151 0.54h-8.568-8.568z"/></g><g enable-background="new    "><path d="m688.78 78.293 37.928-59.669v-0.327h-34.683v-7.963h46.142v5.782l-37.725 59.451v0.327h38.231v7.963h-49.894v-5.564z"/></g></svg>
